<?xml version="1.0" encoding="UTF-8"?>
<svg width="200" height="200" viewBox="0 0 200 200" fill="none" xmlns="http://www.w3.org/2000/svg">
  <path d="M100 15C85 30 70 45 55 60C40 75 25 90 25 105C25 120 40 135 55 150C70 165 85 180 100 165C115 180 130 165 145 150C160 135 175 120 175 105C175 90 160 75 145 60C130 45 115 30 100 15Z" fill="#4F9BFF"/>
  <path d="M100 30C90 40 80 50 70 60C60 70 50 80 50 90C50 100 60 110 70 120C80 130 90 140 100 130C110 140 120 130 130 120C140 110 150 100 150 90C150 80 140 70 130 60C120 50 110 40 100 30Z" stroke="#4F9BFF" stroke-width="2"/>
  <path d="M100 45C95 50 90 55 85 60C80 65 75 70 75 75C75 80 80 85 85 90C90 95 95 100 100 95C105 100 110 95 115 90C120 85 125 80 125 75C125 70 120 65 115 60C110 55 105 50 100 45Z" stroke="#4F9BFF" stroke-width="2"/>
</svg> 